<?xml version="1.0" encoding="utf-8"?>
<!-- Generator: Adobe Illustrator 21.1.0, SVG Export Plug-In . SVG Version: 6.00 Build 0)  -->
<svg version="1.1" id="Слой_1" xmlns="http://www.w3.org/2000/svg" xmlns:xlink="http://www.w3.org/1999/xlink" x="0px" y="0px"
	 viewBox="0 0 512 492" style="enable-background:new 0 0 512 492;" xml:space="preserve">
<path d="M452,0H60C26.9,0,0,26.9,0,60v332c0,44.1,35.9,80,80,80h226c11,0,20-9,20-20s-9-20-20-20H80c-22.1,0-40-17.9-40-40V121h432
	v184c0,11,9,20,20,20s20-9,20-20V60C512,26.9,485.1,0,452,0z M371,40c11,0,20,9,20,20s-9,20-20,20s-20-9-20-20S360,40,371,40z
	 M471,60c0,11-9,20-20,20s-20-9-20-20s9-20,20-20S471,49,471,60z M40,60c0-11,9-20,20-20h254.4c-2.2,6.3-3.4,13-3.4,20
	c0,7.4,1.3,14.5,3.8,21H40V60z M384.9,279.8c-2.3-2.3-5.2-4.1-8.3-5l-78.7-23.9c-7-2.1-14.6-0.3-19.8,4.8
	c-5.2,5.1-7.3,12.6-5.3,19.7l22.4,80.7c0.9,3.3,2.7,6.4,5.1,8.8l109.4,109.6c11.7,11.7,27.1,17.5,42.4,17.5s30.7-5.9,42.4-17.5
	c23.4-23.4,23.4-61.5,0-84.8L384.9,279.8z M321,299.7l39.1,11.9l73.9,74.1L405.7,414l-73.5-73.7L321,299.7z M466.1,446.1
	c-7.8,7.8-20.5,7.8-28.3,0l-3.9-3.9l28.3-28.3l3.9,3.9C473.9,425.7,473.9,438.3,466.1,446.1z"/>
</svg>
