<svg viewBox="0 0 512 512">
    <path d="m408.867188 354.34375h-99.628907v-19.019531c35.695313-19.261719 60-56.960938 60-100.214844v-120.953125c0-62.945312-51.195312-114.15625-114.121093-114.15625-62.921876 0-114.117188 51.210938-114.117188 114.15625v120.953125c0 43.253906 24.300781 80.949219 60 100.214844v19.015625h-97.867188c-56.867187.003906-103.132812 46.164062-103.132812 102.898437v9.78125c0 24.800781 20.214844 44.980469 45.0625 44.980469h421.875c24.847656 0 45.0625-20.179688 45.0625-44.980469v-9.777343c0-56.738282-46.265625-102.898438-103.132812-102.898438zm-153.75-324.34375c44.707031 0 81.378906 35.070312 83.972656 79.15625h-37.523438c-6.285156-19.664062-24.730468-33.945312-46.449218-33.945312s-40.164063 14.28125-46.445313 33.945312h-37.523437c2.589843-44.085938 39.261718-79.15625 83.96875-79.15625zm0 112.734375c-10.335938 0-18.746094-8.417969-18.746094-18.761719s8.410156-18.761718 18.746094-18.761718c10.339843 0 18.75 8.417968 18.75 18.761718s-8.410157 18.761719-18.75 18.761719zm-84.117188 92.375v-95.953125h37.789062c6.398438 19.476562 24.746094 33.578125 46.328126 33.578125 21.582031 0 39.933593-14.101563 46.328124-33.578125h37.792969v95.953125c0 46.234375-37.734375 83.851563-84.121093 83.851563-46.382813 0-84.117188-37.617188-84.117188-83.851563zm84.117188 113.851563c8.273437 0 16.34375-.882813 24.121093-2.558594v13.320312c0 13.242188-10.820312 24.015625-24.121093 24.015625-13.296876 0-24.117188-10.773437-24.117188-24.015625v-13.320312c7.777344 1.675781 15.847656 2.558594 24.117188 2.558594zm226.882812 118.058593c0 8.261719-6.757812 14.980469-15.0625 14.980469h-44.835938v-27.992188c0-8.28125-6.714843-15-15-15-8.285156 0-15 6.71875-15 15v27.992188h-272.203124v-27.992188c0-8.28125-6.71875-15-15-15-8.285157 0-15 6.71875-15 15v27.992188h-44.835938c-8.304688 0-15.0625-6.722656-15.0625-14.980469v-9.777343c0-40.195313 32.808594-72.898438 73.132812-72.898438h103.820313c8.988281 17.4375 27.203125 29.394531 48.164063 29.394531 20.964843 0 39.179687-11.957031 48.164062-29.394531h105.585938c40.324218 0 73.132812 32.703125 73.132812 72.898438zm0 0" />
</svg>