<?xml version="1.0" encoding="utf-8"?>
<!-- Generator: Adobe Illustrator 21.1.0, SVG Export Plug-In . SVG Version: 6.00 Build 0)  -->
<svg version="1.1" id="Слой_1" xmlns="http://www.w3.org/2000/svg" xmlns:xlink="http://www.w3.org/1999/xlink" x="0px" y="0px"
	 viewBox="0 0 512 422.3" style="enable-background:new 0 0 512 422.3;" xml:space="preserve">
<path d="M489.4,0H22.6C10.1,0,0,10.1,0,22.6v377.1c0,12.5,10.1,22.6,22.6,22.6h466.8c12.5,0,22.6-10.1,22.6-22.6V22.6
	C512,10.1,501.9,0,489.4,0z M489.4,399.7l-466.8,0c0,0,0,0,0,0V22.6h466.8V399.7z"/>
<path d="M447,53.7H65c-6.2,0-11.3,5.1-11.3,11.3v249.8c0,6.2,5.1,11.3,11.3,11.3h382c6.2,0,11.3-5.1,11.3-11.3V65
	C458.3,58.8,453.2,53.7,447,53.7z M76.3,76.3h359.3v191.3l-71.2-71.2c-4.4-4.4-11.6-4.4-16,0L305,239.9l-99.6-99.6
	c-4.4-4.4-11.6-4.4-16,0L76.3,253.5L76.3,76.3L76.3,76.3z M76.3,303.5v-18.1l121.2-121.2l139.2,139.2H76.3z M435.7,303.5h-67v0
	L321,255.8l35.4-35.4l76.6,76.6c0.8,0.8,1.7,1.4,2.6,1.9L435.7,303.5L435.7,303.5z"/>
<path d="M304.3,97.8c-23.6,0-42.7,19.2-42.7,42.7s19.2,42.7,42.7,42.7s42.7-19.2,42.7-42.7S327.9,97.8,304.3,97.8z M304.3,160.6
	c-11.1,0-20.1-9-20.1-20.1c0-11.1,9-20.1,20.1-20.1c11.1,0,20.1,9,20.1,20.1C324.5,151.6,315.4,160.6,304.3,160.6z"/>
<path d="M163.3,351.6H65c-6.2,0-11.3,5.1-11.3,11.3c0,6.2,5.1,11.3,11.3,11.3h98.3c6.2,0,11.3-5.1,11.3-11.3
	S169.6,351.6,163.3,351.6z"/>
<path d="M240.7,351.6h-25.8c-6.2,0-11.3,5.1-11.3,11.3s5.1,11.3,11.3,11.3h25.8c6.2,0,11.3-5.1,11.3-11.3S246.9,351.6,240.7,351.6z"
	/>
</svg>
