<?xml version="1.0" encoding="utf-8"?>
<!-- Generator: Adobe Illustrator 21.1.0, SVG Export Plug-In . SVG Version: 6.00 Build 0)  -->
<svg version="1.1" id="Capa_1" xmlns="http://www.w3.org/2000/svg" xmlns:xlink="http://www.w3.org/1999/xlink" x="0px" y="0px"
	 viewBox="0 0 122.8 193" style="enable-background:new 0 0 122.8 193;" xml:space="preserve">
<path d="M93,12.6v13c0,0.5-0.4,0.9-0.9,0.9H30.7c-0.5,0-0.9-0.4-0.9-0.9v-13c0-0.5,0.4-0.9,0.9-0.9h15.7V0h29.9v11.7h15.7
	C92.6,11.7,93,12.1,93,12.6z M122.8,42.3v135.4c0,8.5-6.9,15.3-15.3,15.3H15.3C6.9,193,0,186.1,0,177.7V42.3C0,33.8,6.9,27,15.3,27
	H20c0.7,5.3,5.3,9.5,10.8,9.5h61.3c5.5,0,10.1-4.1,10.8-9.5h4.7C116,27,122.8,33.8,122.8,42.3z M17.1,72.2c0,2.8,2.2,5,5,5h66.1
	c2.8,0,5-2.2,5-5s-2.2-5-5-5H22.1C19.4,67.2,17.1,69.4,17.1,72.2z M93.2,118.6c0-2.8-2.2-5-5-5H22.1c-2.8,0-5,2.2-5,5s2.2,5,5,5
	h66.1C91,123.6,93.2,121.4,93.2,118.6z M108.4,95.4c0-2.8-2.2-5-5-5H22.1c-2.8,0-5,2.2-5,5s2.2,5,5,5h81.2
	C106.1,100.4,108.4,98.2,108.4,95.4z"/>
</svg>
